<svg width="65" height="76" viewBox="0 0 65 76" fill="none" xmlns="http://www.w3.org/2000/svg">
<path d="M34.4749 51.0144L25.1473 70.0294L24.3741 48.8674L5.3452 39.5368L26.5241 38.7526L35.8378 19.7347L36.6249 40.8996L55.6399 50.2273L34.4749 51.0144Z" stroke="black" stroke-miterlimit="10"/>
<path d="M43.5086 7.60692C42.2101 5.63233 39.5525 5.08338 37.5779 6.38188C35.6033 7.68039 35.0543 10.338 36.3528 12.3126C37.6513 14.2872 40.309 14.8362 42.2836 13.5377" stroke="black" stroke-miterlimit="10"/>
<path d="M36.367 37.8519L47.4324 33.8813L39.3043 42.375" stroke="black" stroke-miterlimit="10"/>
<path d="M24.618 51.9132L13.5526 55.8838L21.6946 47.3931" stroke="black" stroke-miterlimit="10"/>
<path d="M37.5241 50.7586L41.4948 61.824L33.0011 53.6959" stroke="black" stroke-miterlimit="10"/>
<path d="M23.4751 39.0097L19.4905 27.9414L27.9842 36.0694" stroke="black" stroke-miterlimit="10"/>
<path d="M29.6021 49.0744C31.9169 49.5664 34.1922 48.0888 34.6842 45.7741C35.1762 43.4593 33.6986 41.184 31.3838 40.692C29.0691 40.1999 26.7938 41.6776 26.3018 43.9923C25.8097 46.3071 27.2874 48.5824 29.6021 49.0744Z" stroke="black" stroke-miterlimit="10"/>
</svg>
