<svg width="24" height="22" viewBox="0 0 24 22" fill="none" xmlns="http://www.w3.org/2000/svg">
<path d="M23.7652 5.13361C23.0937 2.32965 21.0088 0.360697 18.3839 0.056591C15.7825 -0.247515 13.8337 0.963754 12.364 3.24197C12.2419 3.43268 12.1339 3.62854 11.9977 3.86049C11.9414 3.77286 11.8991 3.7007 11.8568 3.62339C11.0069 2.13379 9.9081 0.963754 8.3726 0.37616C4.95411 -0.922732 0.774902 1.20085 0.0893253 5.83975C-0.244072 8.11797 0.375765 10.1024 1.61544 11.8961C2.51702 13.2001 3.57826 14.3392 4.72871 15.3753C6.97327 17.3958 9.24601 19.3853 11.5047 21.3852C11.6643 21.5244 11.8193 21.6636 11.993 21.8182C12.0541 21.7666 12.1151 21.7203 12.1761 21.6687C14.3972 19.7101 16.6324 17.7669 18.8394 15.7876C20.1354 14.6279 21.361 13.3805 22.38 11.9064C23.1689 10.7621 23.7464 9.51479 23.9343 8.07673C23.953 7.92726 23.9812 7.77263 24 7.62315C24 7.23142 24 6.83454 24 6.44281C23.9202 6.00469 23.8685 5.56142 23.7652 5.13361Z" fill="#AD8361"/>
<path d="M11.808 10.14C12.936 10.14 13.788 10.896 13.788 12.636C13.788 14.268 12.864 15.132 11.532 15.132C10.08 15.132 9.516 14.028 9.504 12.84L10.2 12.732C10.224 13.776 10.632 14.46 11.556 14.46C12.504 14.46 13.032 13.74 13.032 12.624C13.032 11.388 12.48 10.74 11.628 10.74C10.812 10.74 10.284 11.136 9.9 11.58L9.732 11.568L10.008 6.924L13.524 6.924V7.584L10.656 7.584L10.452 10.548C10.8 10.296 11.256 10.14 11.808 10.14Z" fill="#F0EDE8"/>
</svg>
