<svg width="272" height="269" viewBox="0 0 272 269" fill="none" xmlns="http://www.w3.org/2000/svg">
<rect x="38.5088" y="146.056" width="168" height="18" transform="rotate(40 38.5088 146.056)" fill="#F0EDE8"/>
<rect x="117.361" y="0.744385" width="19" height="151" transform="rotate(40 117.361 0.744385)" fill="#F0EDE8"/>
<rect opacity="0.15" x="154.991" y="268.599" width="168" height="1.00001" transform="rotate(-140 154.991 268.599)" fill="black"/>
<rect opacity="0.15" x="167.204" y="254.044" width="168" height="1.00001" transform="rotate(-140 167.204 254.044)" fill="black"/>
<rect opacity="0.15" x="19.5339" y="115.774" width="151" height="1.00001" transform="rotate(-50 19.5339 115.774)" fill="black"/>
<rect opacity="0.15" x="34.855" y="128.63" width="151" height="1.00001" transform="rotate(-50 34.855 128.63)" fill="black"/>
<rect x="68.2051" y="129.268" width="94.1109" height="34.2832" transform="rotate(-39.908 68.2051 129.268)" fill="#C3C3C3"/>
<path d="M44.9026 101.05L43.4564 97.0705L43.4165 97.0371L40.684 100.294L41.0525 100.603L43.2585 97.9736L44.6602 101.865L44.7398 101.932L45.0991 101.504C46.0267 100.398 47.1496 100.577 48.0857 101.362C49.0119 102.139 49.2115 103.155 48.5096 103.992C47.8076 104.828 46.8659 104.717 45.9394 104.041L45.733 104.53C46.7177 105.238 47.9636 105.451 48.9079 104.326C49.7519 103.32 49.7098 101.995 48.4251 100.917C47.5089 100.149 46.1824 99.6464 44.9026 101.05ZM48.4044 99.4454L50.7927 96.5789L50.4541 96.2948L48.0559 99.1529L48.4044 99.4454ZM50.4448 91.6138C50.9712 90.9864 50.7741 90.2101 49.5692 89.199L49.2934 89.5277C50.2195 90.3048 50.5639 90.8652 50.146 91.3631C49.7298 91.8794 49.1165 91.6193 48.1904 90.8422L47.9063 91.1808C49.1112 92.1919 49.9184 92.2412 50.4448 91.6138ZM52.28 90.8627L53.7474 96.4554C53.4884 96.2381 53.2379 96.0109 52.9889 95.802L50.1706 93.4372L49.8447 93.8256L54.3858 97.636L54.5279 97.4667L53.0637 91.9107C53.374 92.188 53.7142 92.4905 54.0727 92.7913L56.6122 94.9221L56.938 94.5337L52.3969 90.7233L52.28 90.8627ZM61.4812 89.3217C62.6344 87.9474 62.4979 85.9662 60.0979 83.9523C57.6879 81.9301 55.7147 82.1581 54.5699 83.5224C53.4168 84.8967 53.5349 86.8795 55.9449 88.9017C58.3449 90.9156 60.3197 90.7059 61.4812 89.3217ZM61.0829 88.9874C60.147 90.1028 58.4536 90.2602 56.3042 88.4735C54.1981 86.6554 54.0423 84.9804 54.9782 83.8651C55.9058 82.7597 57.5924 82.6306 59.7386 84.3806C61.8713 86.1871 62.0104 87.882 61.0829 88.9874ZM61.1304 80.214C60.4786 80.9908 60.4321 81.9361 60.8988 82.735C59.6013 81.5105 59.1067 80.6033 59.8059 79.1027C60.4447 77.7549 60.2173 77.0551 59.527 76.4419L59.2011 76.8302C59.7154 77.3297 59.8852 77.7946 59.3304 78.9413C58.5052 80.7944 59.1389 81.92 61.4493 83.8587C63.1821 85.3127 64.7028 85.5026 65.6637 84.3574C66.5913 83.252 66.368 81.8597 64.7945 80.5394C63.231 79.2275 61.8992 79.2979 61.1304 80.214ZM65.2921 84.0115C64.5149 84.9377 63.3223 84.7006 62.0476 83.631C60.8625 82.6366 60.7433 81.4844 61.4619 80.628C62.1387 79.8213 63.2585 79.9633 64.4435 80.9577C65.6402 81.9787 66.0943 83.0555 65.2921 84.0115ZM66.4524 77.4917L65.5667 78.5473L63.8638 77.1183L63.5379 77.5067L68.0491 81.2921L69.2608 79.8481C70.2217 78.7029 70.1734 77.729 69.2473 76.9519C68.3211 76.1747 67.4134 76.3464 66.4524 77.4917ZM66.755 73.6727L71.2663 77.4581L71.5921 77.0697L67.106 73.2544L66.755 73.6727ZM68.8939 79.5572L68.0165 80.6029L65.9152 78.8397L66.7926 77.7941C67.528 76.9177 68.2275 76.7919 68.8947 77.3518C69.5819 77.9284 69.6292 78.6809 68.8939 79.5572ZM75.2039 72.0575L71.0412 68.5645L68.526 71.5621L71.3543 73.9353C72.1908 74.6372 72.5132 75.2641 72.0286 75.8417L71.9617 75.9214L73.6646 77.3503L73.9905 76.9619L72.6362 75.8255L75.6528 72.2304L77.0071 73.3669L77.3247 72.9884L75.6217 71.5595L75.2039 72.0575ZM71.6072 73.4517L69.2271 71.4546L71.0572 69.2737L74.8613 72.4658L72.672 75.0749C72.6634 74.6604 72.4338 74.1453 71.6072 73.4517ZM78.0789 67.2964C78.3033 67.8581 78.281 68.5521 77.7211 69.2194C77.1529 69.8965 76.1337 70.0595 74.8073 69.0314L77.2123 66.145C75.3221 64.4741 74.1213 64.6714 73.3776 65.5577C72.6172 66.464 72.6223 67.8938 74.2954 69.2976C75.9584 70.6931 77.2807 70.5128 78.0829 69.5568C78.7848 68.7203 78.7994 67.8332 78.5535 67.2364L78.0789 67.2964ZM73.756 65.8753C74.2992 65.228 75.2165 65.1661 76.5609 66.2942L74.4985 68.7723C73.2258 67.6195 73.2045 66.5325 73.756 65.8753ZM78.0107 60.2586L79.9427 61.8797L77.9957 64.2001L76.0637 62.579L75.7295 62.9773L80.2407 66.7627L80.575 66.3644L78.3642 64.5093L80.3112 62.1889L82.522 64.044L82.8729 63.6257L78.3617 59.8404L78.0107 60.2586ZM85.3846 60.8347C85.9612 60.1476 86.1208 59.2293 85.6692 58.3922L85.2094 58.5155C85.5932 59.2109 85.5577 59.8599 85.0312 60.4873C84.438 61.1943 83.3439 61.3454 81.958 60.1656C80.5539 58.9874 80.5178 57.8371 81.1111 57.13C81.5624 56.5923 82.0903 56.5092 82.9266 56.7866L83.0032 56.2909C82.0239 55.9613 81.2993 56.117 80.7227 56.8041C79.9289 57.7502 79.944 59.1884 81.6071 60.5839C83.2602 61.971 84.5908 61.7808 85.3846 60.8347ZM89.8951 55.257L85.7284 55.4093L85.3755 51.4816L84.9577 51.9795L85.3356 55.8774L83.1945 54.0808L82.8687 54.4692L87.3799 58.2546L87.7058 57.8662L85.3556 55.8941L89.4689 55.7649L89.8951 55.257ZM88.5039 47.6927L89.9713 53.2853C89.7124 53.0681 89.4618 52.8409 89.2129 52.632L86.3946 50.2671L86.0687 50.6555L90.6098 54.466L90.7519 54.2967L89.2877 48.7406C89.598 49.018 89.9382 49.3204 90.2967 49.6212L92.8361 51.7521L93.162 51.3637L88.6209 47.5533L88.5039 47.6927ZM90.5694 43.7952C91.0959 43.1678 90.8988 42.3914 89.6938 41.3803L89.418 41.709C90.3442 42.4861 90.6885 43.0465 90.2707 43.5445C89.8545 44.0607 89.2411 43.8006 88.315 43.0235L88.0309 43.3621C89.2359 44.3732 90.043 44.4225 90.5694 43.7952ZM92.4046 43.044L93.872 48.6367C93.6131 48.4194 93.3625 48.1922 93.1135 47.9833L90.2953 45.6185L89.9694 46.0069L94.5105 49.8173L94.6525 49.648L93.1883 44.092C93.4986 44.3694 93.8388 44.6718 94.1973 44.9726L96.7368 47.1035L97.0627 46.7151L92.5216 42.9046L92.4046 43.044ZM99.7849 43.4709L100.127 43.0626L95.9946 39.5948L97.9249 37.2943L102.058 40.7622L102.4 40.3539L97.8891 36.5685L95.2736 39.6855L99.7849 43.4709ZM104.918 35.3103C105.143 35.872 105.121 36.566 104.561 37.2333C103.992 37.9104 102.973 38.0734 101.647 37.0453L104.052 34.1589C102.162 32.488 100.961 32.6853 100.217 33.5716C99.4567 34.4779 99.4618 35.9077 101.135 37.3115C102.798 38.707 104.12 38.5267 104.922 37.5707C105.624 36.7342 105.639 35.8471 105.393 35.2503L104.918 35.3103ZM100.596 33.8892C101.139 33.2419 102.056 33.1801 103.4 34.3081L101.338 36.7862C100.065 35.6334 100.044 34.5464 100.596 33.8892ZM103.883 29.243C103.348 29.8803 103.302 30.7241 103.718 31.4628L102.811 30.7024L102.502 31.0709L108.915 36.4523L109.233 36.0739L106.435 33.7258C107.267 34.0682 108.022 33.836 108.54 33.2186C109.376 32.2227 109.221 30.8706 107.617 29.5253C106.024 28.1883 104.727 28.2372 103.883 29.243ZM108.11 32.9425C107.467 33.7093 106.433 33.7075 105.069 32.5627L104.919 32.4373C103.734 31.4429 103.627 30.3174 104.22 29.6103C104.863 28.8435 105.92 28.7971 107.258 29.9535C108.604 31.0999 108.762 32.1657 108.11 32.9425ZM110.883 30.4473C111.067 30.2282 111.019 29.9001 110.8 29.7163C110.571 29.5241 110.24 29.5346 110.056 29.7537C109.881 29.9628 109.911 30.3108 110.14 30.503C110.359 30.6868 110.707 30.6564 110.883 30.4473Z" fill="black"/>
<path d="M137.048 234.73L134.553 235.552C132.751 236.057 131.503 236.569 130.666 237.563C129.761 238.637 129.927 239.712 130.782 240.432C131.945 241.412 133.124 240.739 133.948 240.023L133.681 239.594C132.909 240.269 131.99 240.753 131.155 240.049C130.469 239.472 130.44 238.699 131.11 237.904C131.722 237.178 132.628 236.667 134.707 236.055L137.935 234.967L138.002 234.888L134.463 231.906L134.145 232.284L137.048 234.73ZM131.769 234.056L128.907 231.662L128.622 232L131.475 234.404L131.769 234.056ZM123.941 232C123.315 231.472 122.538 231.668 121.524 232.871L121.853 233.147C122.632 232.223 123.193 231.88 123.69 232.298C124.205 232.716 123.944 233.328 123.165 234.253L123.503 234.538C124.516 233.335 124.567 232.528 123.941 232ZM123.193 230.164L128.789 228.707C128.571 228.966 128.344 229.216 128.134 229.464L125.764 232.278L126.152 232.605L129.971 228.071L129.802 227.928L124.243 229.382C124.521 229.072 124.824 228.732 125.126 228.375L127.261 225.839L126.874 225.513L123.054 230.046L123.193 230.164ZM121.67 220.959C120.298 219.803 118.317 219.936 116.298 222.332C114.271 224.738 114.496 226.712 115.858 227.859C117.23 229.015 119.213 228.901 121.24 226.495C123.258 224.099 123.052 222.123 121.67 220.959ZM121.335 221.357C122.449 222.295 122.603 223.989 120.812 226.135C118.99 228.237 117.315 228.39 116.201 227.452C115.097 226.522 114.972 224.835 116.726 222.692C118.537 220.563 120.232 220.427 121.335 221.357ZM112.562 221.292C113.338 221.946 114.283 221.994 115.083 221.529C113.856 222.824 112.947 223.317 111.448 222.615C110.102 221.973 109.401 222.199 108.787 222.888L109.175 223.215C109.675 222.702 110.14 222.533 111.286 223.09C113.137 223.919 114.264 223.287 116.207 220.981C117.665 219.251 117.858 217.73 116.714 216.767C115.611 215.837 114.218 216.058 112.895 217.629C111.58 219.19 111.647 220.522 112.562 221.292ZM116.368 217.138C117.292 217.917 117.053 219.109 115.981 220.382C114.984 221.565 113.832 221.682 112.977 220.962C112.171 220.283 112.315 219.164 113.312 217.981C114.336 216.786 115.413 216.334 116.368 217.138ZM109.85 215.965L110.904 216.853L109.472 218.553L109.859 218.88L113.654 214.376L112.212 213.161C111.069 212.198 110.095 212.244 109.316 213.169C108.537 214.094 108.707 215.002 109.85 215.965ZM106.032 215.655L109.826 211.151L109.438 210.824L105.614 215.303L106.032 215.655ZM111.92 213.528L112.964 214.407L111.197 216.505L110.153 215.625C109.278 214.888 109.154 214.189 109.715 213.522C110.293 212.836 111.046 212.79 111.92 213.528ZM104.433 207.203L100.932 211.359L103.925 213.88L106.303 211.056C107.007 210.221 107.634 209.9 108.211 210.386L108.291 210.453L109.723 208.753L109.335 208.426L108.196 209.778L104.607 206.754L105.746 205.402L105.368 205.084L103.936 206.784L104.433 207.203ZM105.82 210.802L103.818 213.178L101.641 211.344L104.841 207.546L107.445 209.741C107.031 209.748 106.515 209.977 105.82 210.802ZM99.6775 204.319C100.24 204.095 100.934 204.119 101.6 204.68C102.276 205.25 102.437 206.269 101.406 207.594L98.5244 205.183C96.8498 207.07 97.0448 208.271 97.9297 209.017C98.8344 209.779 100.264 209.776 101.671 208.106C103.07 206.446 102.892 205.123 101.938 204.319C101.103 203.616 100.216 203.599 99.6185 203.844L99.6775 204.319ZM98.2479 208.639C97.6017 208.094 97.5417 207.177 98.6724 205.835L101.146 207.902C99.9912 209.172 98.9041 209.192 98.2479 208.639ZM92.6396 204.373L94.2645 202.444L96.5811 204.396L94.9562 206.325L95.3539 206.66L99.148 202.156L98.7503 201.821L96.891 204.028L94.5744 202.076L96.4338 199.869L96.0162 199.517L92.2221 204.021L92.6396 204.373ZM93.2301 197C92.5441 196.422 91.6261 196.261 90.7881 196.711L90.9105 197.171C91.6067 196.789 92.2556 196.825 92.882 197.353C93.5879 197.948 93.7368 199.042 92.5543 200.426C91.3733 201.827 90.223 201.861 89.5171 201.267C88.9802 200.814 88.8981 200.286 89.1772 199.45L88.6816 199.373C88.3502 200.352 88.5044 201.076 89.1904 201.654C90.1349 202.45 91.5731 202.438 92.9719 200.777C94.3622 199.127 94.1746 197.796 93.2301 197ZM87.6612 192.479L87.8054 196.646L83.877 196.991L84.3741 197.41L88.2727 197.04L86.4719 199.177L86.8597 199.504L90.6539 195L90.2661 194.673L88.2895 197.02L88.1683 192.906L87.6612 192.479ZM80.0942 193.855L85.6897 192.399C85.4719 192.657 85.2442 192.908 85.0348 193.156L82.6645 195.97L83.0523 196.296L86.8716 191.763L86.7025 191.62L81.1437 193.074C81.4216 192.764 81.7247 192.424 82.0262 192.066L84.162 189.531L83.7743 189.204L79.955 193.738L80.0942 193.855ZM76.2007 191.782C75.5743 191.255 74.7976 191.45 73.7842 192.653L74.1123 192.93C74.8912 192.005 75.4523 191.662 75.9494 192.081C76.4649 192.498 76.2036 193.111 75.4246 194.035L75.7627 194.32C76.7761 193.117 76.8271 192.31 76.2007 191.782ZM75.4532 189.946L81.0487 188.489C80.8309 188.748 80.6032 188.998 80.3938 189.246L78.0235 192.06L78.4113 192.387L82.2306 187.853L82.0615 187.711L76.5026 189.164C76.7806 188.854 77.0837 188.515 77.3852 188.157L79.521 185.621L79.1333 185.295L75.314 189.828L75.4532 189.946ZM75.8944 182.566L75.4868 182.223L72.0109 186.349L69.7142 184.414L73.1901 180.288L72.7825 179.945L68.9883 184.448L72.1003 187.07L75.8944 182.566ZM67.7439 177.417C68.306 177.193 69 177.217 69.6661 177.778C70.3422 178.348 70.5032 179.367 69.4724 180.692L66.5908 178.281C64.9162 180.168 65.1111 181.369 65.996 182.115C66.9008 182.877 68.3306 182.874 69.7377 181.204C71.1364 179.544 70.9587 178.221 70.0043 177.417C69.1691 176.714 68.282 176.697 67.6848 176.942L67.7439 177.417ZM66.3143 181.737C65.668 181.192 65.608 180.275 66.7387 178.933L69.2128 181C68.0575 182.27 66.9705 182.29 66.3143 181.737ZM61.6745 178.44C62.3108 178.976 63.1545 179.024 63.8941 178.61L63.1319 179.515L63.4997 179.825L68.8937 173.422L68.5159 173.104L66.1623 175.897C66.5063 175.065 66.2756 174.31 65.6592 173.791C64.665 172.953 63.3126 173.106 61.9641 174.707C60.624 176.297 60.6704 177.594 61.6745 178.44ZM65.3823 174.22C66.1478 174.865 66.144 175.899 64.9965 177.261L64.8709 177.41C63.8742 178.593 62.7484 178.699 62.0425 178.104C61.277 177.459 61.2327 176.402 62.3916 175.067C63.5407 173.723 64.6068 173.567 65.3823 174.22ZM62.8925 171.443C62.6737 171.259 62.3456 171.305 62.1613 171.524C61.9687 171.753 61.9786 172.084 62.1973 172.268C62.4061 172.444 62.7541 172.414 62.9468 172.186C63.131 171.967 63.1013 171.619 62.8925 171.443Z" fill="black"/>
<path d="M90.8278 129.105L85.5151 122.753L85.1162 123.086L90.4289 129.438L87.5969 131.807L82.2842 125.455L81.8753 125.797L87.4883 132.508L91.2677 129.347L92.4019 130.703L92.7809 130.386L91.3464 128.671L90.8278 129.105ZM94.47 124.957C94.5925 125.549 94.4489 126.229 93.7808 126.788C93.1027 127.355 92.0707 127.337 90.945 126.092L93.8185 123.672C92.2504 121.695 91.0336 121.679 90.1461 122.421C89.2386 123.18 88.9932 124.589 90.3943 126.264C91.7871 127.93 93.1205 127.984 94.0778 127.183C94.9154 126.483 95.0853 125.612 94.9477 124.981L94.47 124.957ZM90.463 122.8C91.1112 122.258 92.0252 122.358 93.1511 123.704L90.6864 125.783C89.6354 124.425 89.8049 123.351 90.463 122.8ZM94.514 118.802C93.8758 119.336 93.6825 120.159 93.9619 120.959L93.2029 120.051L92.834 120.36L98.2051 126.782L98.584 126.465L96.2404 123.663C97.0003 124.146 97.7841 124.049 98.4023 123.532C99.3995 122.698 99.4837 121.34 98.1409 119.734C96.8065 118.139 95.5212 117.96 94.514 118.802ZM98.0272 123.185C97.2594 123.827 96.2421 123.644 95.0994 122.278L94.9743 122.129C93.9818 120.942 94.073 119.815 94.7811 119.223C95.5489 118.581 96.5978 118.72 97.7121 120.093C98.8364 121.458 98.805 122.535 98.0272 123.185ZM104.152 118.571L100.023 117.991L100.364 114.062L99.8655 114.479L99.5545 118.383L97.7614 116.239L97.3725 116.564L101.151 121.081L101.54 120.756L99.5712 118.403L103.644 118.996L104.152 118.571ZM106.194 117.049C107.241 116.174 107.295 114.739 106.011 113.203C104.718 111.658 103.279 111.437 102.232 112.313C101.175 113.197 101.138 114.652 102.431 116.197C103.715 117.733 105.137 117.934 106.194 117.049ZM105.869 116.661C105.051 117.344 103.932 117.162 102.85 115.847C101.777 114.524 101.74 113.386 102.558 112.702C103.375 112.018 104.479 112.264 105.592 113.553C106.694 114.851 106.686 115.977 105.869 116.661ZM109.174 110.388C109.669 109.703 109.471 109.021 109.121 108.602C108.529 107.894 107.864 107.789 106.917 108.581L105.272 109.957L109.05 114.475L110.615 113.165C111.652 112.298 111.826 111.39 111.192 110.633C110.683 110.024 110.043 109.847 109.174 110.388ZM108.79 108.997C109.191 109.476 109.182 110.195 108.354 110.887L107.387 111.696L105.952 109.981L107.109 109.014C107.867 108.38 108.332 108.449 108.79 108.997ZM110.294 112.841L109.147 113.8L107.62 111.975L108.618 111.141C109.495 110.408 110.199 110.276 110.741 110.925C111.125 111.383 111.221 112.066 110.294 112.841ZM112.487 106.821L111.43 107.705L110.004 105.999L109.615 106.325L113.393 110.842L114.839 109.633C115.986 108.674 116.109 107.706 115.333 106.779C114.558 105.852 113.634 105.862 112.487 106.821ZM114.529 109.282L113.482 110.158L111.722 108.054L112.769 107.178C113.646 106.444 114.357 106.443 114.916 107.111C115.491 107.799 115.406 108.548 114.529 109.282ZM117.395 96.0213L118.718 104.27L117.968 103.372L114.148 98.8052L113.739 99.1471L119.394 105.908L119.553 105.775L118.217 97.5712L119.209 98.7578L122.762 103.006L123.161 102.672L117.515 95.9213L117.395 96.0213ZM127.471 99.0676L127.88 98.7257L124.102 94.2083L121.08 96.7354L124.191 100.455C124.525 100.854 124.522 101.094 124.253 101.319C124.123 101.427 123.998 101.481 123.829 101.521L124.069 101.93C124.24 101.871 124.415 101.776 124.594 101.626C125.093 101.209 125.125 100.741 124.542 100.043L121.789 96.7525L123.993 94.9093L127.471 99.0676ZM128.59 90.4038L129.055 96.167C128.838 95.9078 128.631 95.6401 128.422 95.3908L126.062 92.5688L125.673 92.894L129.476 97.4413L129.646 97.2995L129.178 91.5728C129.435 91.9003 129.717 92.2576 130.017 92.6166L132.144 95.1595L132.533 94.8342L128.73 90.287L128.59 90.4038ZM133.245 86.5106L133.71 92.2738C133.493 92.0146 133.286 91.7469 133.077 91.4976L130.717 88.6756L130.328 89.0008L134.131 93.5481L134.301 93.4063L133.833 87.6796C134.09 88.0071 134.372 88.3644 134.672 88.7234L136.799 91.2663L137.188 90.941L133.384 86.3938L133.245 86.5106ZM100.142 140.345C101.519 139.194 101.731 137.22 99.7214 134.816C97.7031 132.403 95.7205 132.282 94.3543 133.424C92.9782 134.575 92.747 136.548 94.7653 138.961C96.7753 141.365 98.7563 141.504 100.142 140.345ZM99.8088 139.946C98.692 140.88 96.9973 140.738 95.1941 138.603C93.4392 136.444 93.5794 134.767 94.6963 133.833C95.8031 132.908 97.4862 133.076 99.2926 135.175C101.076 137.327 100.916 139.02 99.8088 139.946ZM101.393 131.317C100.615 131.967 100.404 132.89 100.723 133.758C99.6604 132.325 99.3324 131.346 100.284 129.991C101.149 128.776 101.048 128.047 100.475 127.322L100.086 127.647C100.505 128.229 100.591 128.717 99.8439 129.748C98.7067 131.428 99.1333 132.647 101.068 134.961C102.519 136.696 103.983 137.15 105.13 136.19C106.237 135.265 106.261 133.855 104.943 132.279C103.634 130.714 102.31 130.55 101.393 131.317ZM104.825 135.785C103.897 136.56 102.765 136.118 101.697 134.842C100.705 133.655 100.789 132.5 101.647 131.782C102.455 131.107 103.532 131.443 104.525 132.63C105.524 133.844 105.782 134.984 104.825 135.785ZM107.11 129.569L106.053 130.453L104.627 128.748L104.238 129.073L108.016 133.591L109.462 132.381C110.608 131.422 110.732 130.455 109.956 129.527C109.18 128.6 108.257 128.61 107.11 129.569ZM108.077 125.862L111.855 130.38L112.244 130.054L108.496 125.512L108.077 125.862ZM109.151 132.031L108.104 132.906L106.345 130.802L107.392 129.927C108.269 129.193 108.98 129.191 109.539 129.859C110.114 130.547 110.029 131.297 109.151 132.031ZM116.678 125.753L113.192 121.584L110.19 124.095L112.559 126.927C113.259 127.764 113.467 128.438 112.889 128.922L112.809 128.989L114.235 130.694L114.624 130.369L113.49 129.012L117.09 126.001L118.224 127.358L118.603 127.041L117.177 125.336L116.678 125.753ZM112.893 126.495L110.899 124.112L113.083 122.285L116.269 126.094L113.657 128.28C113.721 127.87 113.585 127.323 112.893 126.495ZM120.343 121.569C120.465 122.161 120.322 122.841 119.654 123.399C118.976 123.967 117.944 123.948 116.818 122.704L119.691 120.283C118.123 118.307 116.906 118.291 116.019 119.033C115.111 119.792 114.866 121.201 116.267 122.876C117.66 124.542 118.993 124.596 119.951 123.795C120.788 123.094 120.958 122.224 120.821 121.593L120.343 121.569ZM116.336 119.412C116.984 118.87 117.898 118.97 119.024 120.316L116.559 122.395C115.508 121.037 115.678 119.963 116.336 119.412ZM121.509 114.628L123.127 116.563L120.803 118.506L119.185 116.571L118.787 116.905L122.565 121.422L122.964 121.089L121.112 118.875L123.436 116.932L125.287 119.145L125.706 118.795L121.928 114.278L121.509 114.628ZM128.668 116.487C129.356 115.912 129.674 115.036 129.376 114.133L128.902 114.173C129.158 114.925 129.009 115.558 128.381 116.083C127.673 116.676 126.569 116.633 125.411 115.228C124.235 113.822 124.402 112.683 125.11 112.091C125.648 111.641 126.182 111.652 126.957 112.071L127.119 111.597C126.213 111.101 125.472 111.127 124.784 111.702C123.837 112.495 123.6 113.913 124.993 115.578C126.377 117.234 127.72 117.28 128.668 116.487ZM134.086 111.786L129.957 111.206L130.298 107.277L129.799 107.694L129.488 111.598L127.695 109.454L127.306 109.779L131.084 114.297L131.473 113.972L129.505 111.618L133.577 112.212L134.086 111.786ZM136.128 110.265C137.175 109.389 137.229 107.954 135.944 106.419C134.652 104.873 133.213 104.653 132.166 105.528C131.109 106.412 131.072 107.867 132.364 109.413C133.649 110.949 135.071 111.149 136.128 110.265ZM135.802 109.876C134.985 110.56 133.866 110.377 132.783 109.063C131.711 107.74 131.674 106.601 132.491 105.917C133.309 105.233 134.413 105.479 135.526 106.769C136.628 108.067 136.62 109.192 135.802 109.876ZM137.489 101.263L135.205 103.173L138.983 107.69L139.372 107.365L135.886 103.197L137.781 101.612L137.489 101.263ZM143.392 104.189C144.44 103.313 144.494 101.878 143.209 100.343C141.916 98.7971 140.478 98.5766 139.431 99.4524C138.374 100.336 138.336 101.791 139.629 103.337C140.914 104.873 142.335 105.073 143.392 104.189ZM143.067 103.8C142.249 104.484 141.131 104.301 140.048 102.987C138.975 101.664 138.938 100.525 139.756 99.8413C140.574 99.1574 141.678 99.4034 142.79 100.693C143.893 101.991 143.885 103.116 143.067 103.8Z" fill="black"/>
<path d="M143.072 152.623L193.736 92.2442L215.284 110.325L213.869 112.011L229.884 125.45L225.072 131.184L233.225 138.026L170.674 212.571L120.881 170.79L138.996 149.202L143.072 152.623Z" fill="#AD8361"/>
</svg>
